<?xml version="1.0" encoding="UTF-8" standalone="no"?>
<!-- Created with Inkscape (http://www.inkscape.org/) -->

<svg
   xmlns:dc="http://purl.org/dc/elements/1.1/"
   xmlns:cc="http://creativecommons.org/ns#"
   xmlns:rdf="http://www.w3.org/1999/02/22-rdf-syntax-ns#"
   xmlns:svg="http://www.w3.org/2000/svg"
   xmlns="http://www.w3.org/2000/svg"
   xmlns:sodipodi="http://sodipodi.sourceforge.net/DTD/sodipodi-0.dtd"
   xmlns:inkscape="http://www.inkscape.org/namespaces/inkscape"
   width="270"
   height="90"
   id="svg2"
   version="1.1"
   inkscape:version="0.48.2 r9819"
   sodipodi:docname="New document 1">
  <defs
     id="defs4" />
  <sodipodi:namedview
     id="base"
     pagecolor="#ffffff"
     bordercolor="#666666"
     borderopacity="1.0"
     inkscape:pageopacity="0.0"
     inkscape:pageshadow="2"
     inkscape:zoom="3.5903614"
     inkscape:cx="148.14434"
     inkscape:cy="44.656175"
     inkscape:document-units="px"
     inkscape:current-layer="layer1"
     showgrid="true"
     units="in"
     showguides="true"
     inkscape:guide-bbox="true"
     showborder="true"
     inkscape:window-width="1621"
     inkscape:window-height="1006"
     inkscape:window-x="59"
     inkscape:window-y="0"
     inkscape:window-maximized="1">
    <inkscape:grid
       type="xygrid"
       id="grid2985"
       empspacing="6"
       visible="true"
       enabled="true"
       snapvisiblegridlinesonly="true"
       empcolor="#ff0000"
       empopacity="0.25098039"
       spacingx="3px"
       spacingy="3px" />
  </sodipodi:namedview>
  <metadata
     id="metadata7">
    <rdf:RDF>
      <cc:Work
         rdf:about="">
        <dc:format>image/svg+xml</dc:format>
        <dc:type
           rdf:resource="http://purl.org/dc/dcmitype/StillImage" />
        <dc:title></dc:title>
      </cc:Work>
    </rdf:RDF>
  </metadata>
  <g
     inkscape:label="Layer 1"
     inkscape:groupmode="layer"
     id="layer1"
     transform="translate(0,-962.35975)">
    <rect
       style="fill:#aa0000;fill-opacity:1;stroke:none"
       id="rect3527"
       width="114"
       height="3"
       x="69"
       y="-1014.3598"
       transform="scale(1,-1)" />
    <rect
       y="-1011.3598"
       x="69"
       height="3"
       width="114"
       id="rect3529"
       style="fill:#ff2a2a;fill-opacity:1;stroke:none"
       transform="scale(1,-1)" />
    <rect
       y="-1008.3598"
       x="69"
       height="3"
       width="114"
       id="rect3531"
       style="fill:#ff6600;fill-opacity:1;stroke:none"
       transform="scale(1,-1)" />
    <rect
       style="fill:#ffcc00;fill-opacity:1;stroke:none"
       id="rect3533"
       width="114"
       height="3"
       x="69"
       y="-1005.3598"
       transform="scale(1,-1)" />
    <rect
       y="-1002.3598"
       x="69"
       height="6.31249"
       width="114"
       id="rect3535"
       style="fill:#ffff00;fill-opacity:1;stroke:none"
       transform="scale(1,-1)" />
    <g
       id="g3435"
       transform="translate(-90,27.6875)">
      <path
         id="path3437"
         d="m 189,962.35975 c -2.08475,0 -4.09901,0.30929 -6,0.875 l 0,3.1875 c 1.88278,-0.66819 3.8881,-1.0625 6,-1.0625 2.1119,0 4.11722,0.39431 6,1.0625 l 0,-3.1875 c -1.90099,-0.56571 -3.91525,-0.875 -6,-0.875 z"
         style="fill:#aa0000;fill-opacity:1;stroke:none"
         inkscape:connector-curvature="0" />
      <path
         id="path3439"
         d="m 189,965.35975 c -2.1119,0 -4.11722,0.39431 -6,1.0625 l 0,3.1875 c 1.83573,-0.80106 3.86912,-1.25 6,-1.25 2.13088,0 4.16427,0.44894 6,1.25 l 0,-3.1875 c -1.88278,-0.66819 -3.8881,-1.0625 -6,-1.0625 z"
         style="fill:#ff2a2a;fill-opacity:1;stroke:none"
         inkscape:connector-curvature="0" />
      <path
         id="path3441"
         d="m 189,968.35975 c -2.13088,0 -4.16427,0.44894 -6,1.25 l 0,3.375 c 1.76724,-1.02451 3.81026,-1.625 6,-1.625 2.18974,0 4.23276,0.60049 6,1.625 l 0,-3.375 c -1.83573,-0.80106 -3.86912,-1.25 -6,-1.25 z"
         style="fill:#ff6600;fill-opacity:1;stroke:none"
         inkscape:connector-curvature="0" />
      <path
         id="path3443"
         d="m 189,971.35975 c -2.18974,0 -4.23276,0.60049 -6,1.625 l 0,3.6875 c 1.59345,-1.4304 3.69015,-2.3125 6,-2.3125 2.30985,0 4.40655,0.8821 6,2.3125 l 0,-3.6875 c -1.76724,-1.02451 -3.81026,-1.625 -6,-1.625 z"
         style="fill:#ffcc00;fill-opacity:1;stroke:none"
         inkscape:connector-curvature="0" />
      <path
         sodipodi:nodetypes="scssscs"
         inkscape:connector-curvature="0"
         id="path3445"
         transform="translate(0,962.35975)"
         d="m 189,12 c -2.30985,0 -4.40655,0.882126 -6,2.3125 L 183,18 c 0,3.3136 2.68632,6 6,6 3.31368,0 6,-2.6864 6,-6 l 0,-3.6875 C 193.40655,12.882126 191.30985,12 189,12 z"
         style="fill:#ffff00;fill-opacity:1;stroke:none" />
    </g>
    <path
       sodipodi:nodetypes="ssccsssccsssssssssss"
       inkscape:connector-curvature="0"
       id="path3447"
       d="m 153,981.0473 c -4.97056,0 -9,4.0294 -9,9 l 0,3 3,0 0,-3 c 0,-3.3138 2.68629,-6 6,-6 3.31371,0 6,2.6862 6,6 l 0,9 0,2.3125 c -1.59345,-1.4305 -3.69015,-2.3125 -6,-2.3125 -4.97056,0 -9,4.0295 -9,9 0,4.9706 4.02944,9 9,9 4.97056,0 9,-4.0294 9,-9 l 0,-18 c 0,-4.9706 -4.02944,-9 -9,-9 z m 0,21 c 3.31371,0 6,2.6863 6,6 0,3.3138 -2.68629,6 -6,6 -3.31371,0 -6,-2.6862 -6,-6 0,-3.3137 2.68629,-6 6,-6 z"
       style="fill:#5aa02c;fill-opacity:1;stroke:#000000" />
    <path
       sodipodi:nodetypes="sccsccsccsccs"
       inkscape:connector-curvature="0"
       id="path3449"
       d="m 81,981.0473 c -4.97056,0 -9,4.0294 -9,9 0.17244,7.6414 14.74845,12.8489 15,18 0,3.3136 -2.68632,6 -6,6 -3.31368,0 -6,-2.6864 -6,-6 l -3,0 c 0,4.9706 4.02944,9 9,9 4.97056,0 9,-4.0294 9,-9 -0.43911,-8.2417 -14.3871,-12.0811 -15,-18 0,-3.3137 2.68632,-6 6,-6 3.31368,0 6,2.6863 6,6 l 3,0 c 0,-4.9706 -4.02944,-9 -9,-9 z"
       style="fill:#b3b3b3;fill-opacity:1;stroke:#000000" />
    <path
       id="path3451"
       d="m 90,981.0473 0,27 c 0,4.9706 4.02944,9 9,9 4.97056,0 9,-4.0294 9,-9 l 0,-27 -3,0 0,27 c 0,3.3136 -2.68632,6 -6,6 -3.31368,0 -6,-2.6864 -6,-6 l 0,-27 -3,0 z"
       style="fill:#b3b3b3;fill-opacity:1;stroke:#000000"
       inkscape:connector-curvature="0" />
    <path
       sodipodi:nodetypes="cssccsssccssscccccssscc"
       inkscape:connector-curvature="0"
       id="path3453"
       d="m 126,981.0473 0,9 c 0,4.9706 4.02944,9 9,9 2.30985,0 4.40655,-0.882 6,-2.3125 l 0,2.3125 0,9 c 0,3.3138 -2.68629,6 -6,6 -3.31371,0 -6,-2.6862 -6,-6 l 0,-3 -3,0 0,3 c 0,4.9706 4.02944,9 9,9 4.97056,0 9,-4.0294 9,-9 l 0,-9 0,-9 0,-6 0,-3 -3,0 0,9 c 0,3.3138 -2.68629,6 -6,6 -3.31371,0 -6,-2.6862 -6,-6 l 0,-9 z"
       style="fill:#b3b3b3;fill-opacity:1;stroke:#000000" />
    <path
       sodipodi:nodetypes="cccccsssccsssccccccc"
       inkscape:connector-curvature="0"
       id="path3455"
       d="m 162,981.0473 0,9 0,3 0,6 0,3 0,6 c 0,4.9706 4.02944,9 9,9 4.97056,0 9,-4.0294 9,-9 l 0,-3 -3,0 0,3 c 0,3.3138 -2.68629,6 -6,6 -3.31371,0 -6,-2.6862 -6,-6 l 0,-9 0,-6 9,0 0,-3 -9,0 0,-9 z"
       style="fill:#8dd35f;fill-opacity:1;stroke:#000000" />
    <path
       inkscape:connector-curvature="0"
       style="fill:#b3b3b3;fill-opacity:1;stroke:#000000"
       d="m 108,1017.0474 0,-27 c 0,-4.9705 4.02944,-9.0001 9,-9.0001 4.97056,0 9,4.0296 9,9.0001 l 0,27 -3,0 0,-27 c 0,-3.3136 -2.68632,-6 -6,-6 -3.31368,0 -6,2.6864 -6,6 l 0,27 -3,0 z"
       id="path3457" />
  </g>
</svg>
